<?xml version="1.0" encoding="UTF-8" standalone="no"?>
<!DOCTYPE svg PUBLIC "-//W3C//DTD SVG 1.1//EN"
 "http://www.w3.org/Graphics/SVG/1.1/DTD/svg11.dtd">
<!-- Generated by graphviz version 3.0.0 (20220404.1115)
 -->
<!-- Pages: 1 -->
<svg width="865pt" height="688pt"
 viewBox="0.00 0.00 865.11 688.40" xmlns="http://www.w3.org/2000/svg" xmlns:xlink="http://www.w3.org/1999/xlink">
<g id="graph0" class="graph" transform="scale(1 1) rotate(0) translate(4 684.4)">
<polygon fill="white" stroke="transparent" points="-4,4 -4,-684.4 861.11,-684.4 861.11,4 -4,4"/>
<text text-anchor="middle" x="428.56" y="-663.8" font-family="Arial" font-size="14.00">Attack Tree for Tekton</text>
<!-- reality -->
<g id="node1" class="node">
<title>reality</title>
<path fill="#272727" stroke="transparent" d="M380.38,-655.5C380.38,-655.5 333.79,-655.5 333.79,-655.5 327.79,-655.5 321.79,-649.5 321.79,-643.5 321.79,-643.5 321.79,-622.9 321.79,-622.9 321.79,-616.9 327.79,-610.9 333.79,-610.9 333.79,-610.9 380.38,-610.9 380.38,-610.9 386.38,-610.9 392.38,-616.9 392.38,-622.9 392.38,-622.9 392.38,-643.5 392.38,-643.5 392.38,-649.5 386.38,-655.5 380.38,-655.5"/>
<text text-anchor="middle" x="357.08" y="-629" font-family="Arial" font-size="14.00" fill="#ffffff">Reality</text>
</g>
<!-- image -->
<g id="node2" class="node">
<title>image</title>
<path fill="#d2d5dd" stroke="transparent" d="M334.7,-581.6C334.7,-581.6 231.47,-581.6 231.47,-581.6 225.47,-581.6 219.47,-575.6 219.47,-569.6 219.47,-569.6 219.47,-532.4 219.47,-532.4 219.47,-526.4 225.47,-520.4 231.47,-520.4 231.47,-520.4 334.7,-520.4 334.7,-520.4 340.7,-520.4 346.7,-526.4 346.7,-532.4 346.7,-532.4 346.7,-569.6 346.7,-569.6 346.7,-575.6 340.7,-581.6 334.7,-581.6"/>
<text text-anchor="middle" x="283.08" y="-555.2" font-family="Arial" font-size="14.00">Step uses a</text>
<text text-anchor="middle" x="283.08" y="-538.4" font-family="Arial" font-size="14.00">container image</text>
</g>
<!-- reality&#45;&gt;image -->
<g id="edge22" class="edge">
<title>reality&#45;&gt;image</title>
<path fill="none" stroke="#2b303a" d="M337.25,-610.71C331.22,-604.17 324.4,-596.77 317.68,-589.5"/>
<polygon fill="#2b303a" stroke="#2b303a" points="319.83,-586.67 310.48,-581.69 314.69,-591.42 319.83,-586.67"/>
</g>
<!-- execution -->
<g id="node3" class="node">
<title>execution</title>
<path fill="#d2d5dd" stroke="transparent" d="M491.73,-581.6C491.73,-581.6 372.43,-581.6 372.43,-581.6 366.43,-581.6 360.43,-575.6 360.43,-569.6 360.43,-569.6 360.43,-532.4 360.43,-532.4 360.43,-526.4 366.43,-520.4 372.43,-520.4 372.43,-520.4 491.73,-520.4 491.73,-520.4 497.73,-520.4 503.73,-526.4 503.73,-532.4 503.73,-532.4 503.73,-569.6 503.73,-569.6 503.73,-575.6 497.73,-581.6 491.73,-581.6"/>
<text text-anchor="middle" x="432.08" y="-555.2" font-family="Arial" font-size="14.00">Tekton runs Tasks</text>
<text text-anchor="middle" x="432.08" y="-538.4" font-family="Arial" font-size="14.00">and Pipelines</text>
</g>
<!-- reality&#45;&gt;execution -->
<g id="edge23" class="edge">
<title>reality&#45;&gt;execution</title>
<path fill="none" stroke="#2b303a" d="M377.18,-610.71C383.43,-604.03 390.51,-596.46 397.45,-589.03"/>
<polygon fill="#2b303a" stroke="#2b303a" points="400.04,-591.39 404.32,-581.69 394.93,-586.61 400.04,-591.39"/>
</g>
<!-- image&#45;&gt;execution -->
<!-- attack_image -->
<g id="node4" class="node">
<title>attack_image</title>
<path fill="#ff92cc" stroke="transparent" d="M168.02,-383.6C168.02,-383.6 62.15,-383.6 62.15,-383.6 56.15,-383.6 50.15,-377.6 50.15,-371.6 50.15,-371.6 50.15,-334.4 50.15,-334.4 50.15,-328.4 56.15,-322.4 62.15,-322.4 62.15,-322.4 168.02,-322.4 168.02,-322.4 174.02,-322.4 180.02,-328.4 180.02,-334.4 180.02,-334.4 180.02,-371.6 180.02,-371.6 180.02,-377.6 174.02,-383.6 168.02,-383.6"/>
<text text-anchor="middle" x="115.08" y="-357.2" font-family="Arial" font-size="14.00">Attacker runs an</text>
<text text-anchor="middle" x="115.08" y="-340.4" font-family="Arial" font-size="14.00">unknown image</text>
</g>
<!-- image&#45;&gt;attack_image -->
<g id="edge6" class="edge">
<title>image&#45;&gt;attack_image</title>
<path fill="none" stroke="#2b303a" d="M257.57,-520.23C228,-485.74 179.25,-428.86 147.15,-391.41"/>
<polygon fill="#2b303a" stroke="#2b303a" points="149.73,-389.04 140.56,-383.73 144.41,-393.6 149.73,-389.04"/>
</g>
<!-- exploit_vulnerability -->
<g id="node5" class="node">
<title>exploit_vulnerability</title>
<path fill="#ff92cc" stroke="transparent" d="M342.29,-383.6C342.29,-383.6 235.87,-383.6 235.87,-383.6 229.87,-383.6 223.87,-377.6 223.87,-371.6 223.87,-371.6 223.87,-334.4 223.87,-334.4 223.87,-328.4 229.87,-322.4 235.87,-322.4 235.87,-322.4 342.29,-322.4 342.29,-322.4 348.29,-322.4 354.29,-328.4 354.29,-334.4 354.29,-334.4 354.29,-371.6 354.29,-371.6 354.29,-377.6 348.29,-383.6 342.29,-383.6"/>
<text text-anchor="middle" x="289.08" y="-357.2" font-family="Arial" font-size="14.00">Attacker exploits</text>
<text text-anchor="middle" x="289.08" y="-340.4" font-family="Arial" font-size="14.00">vulnerability</text>
</g>
<!-- image&#45;&gt;exploit_vulnerability -->
<g id="edge7" class="edge">
<title>image&#45;&gt;exploit_vulnerability</title>
<path fill="none" stroke="#2b303a" d="M283.99,-520.23C285.03,-486.46 286.72,-431.23 287.86,-393.78"/>
<polygon fill="#2b303a" stroke="#2b303a" points="291.36,-393.83 288.17,-383.73 284.37,-393.61 291.36,-393.83"/>
</g>
<!-- tamper_manifests -->
<g id="node6" class="node">
<title>tamper_manifests</title>
<path fill="#ff92cc" stroke="transparent" d="M486.9,-491C486.9,-491 377.27,-491 377.27,-491 371.27,-491 365.27,-485 365.27,-479 365.27,-479 365.27,-441.8 365.27,-441.8 365.27,-435.8 371.27,-429.8 377.27,-429.8 377.27,-429.8 486.9,-429.8 486.9,-429.8 492.9,-429.8 498.9,-435.8 498.9,-441.8 498.9,-441.8 498.9,-479 498.9,-479 498.9,-485 492.9,-491 486.9,-491"/>
<text text-anchor="middle" x="432.08" y="-464.6" font-family="Arial" font-size="14.00">Attacker tampers</text>
<text text-anchor="middle" x="432.08" y="-447.8" font-family="Arial" font-size="14.00">with a resource</text>
</g>
<!-- execution&#45;&gt;tamper_manifests -->
<g id="edge8" class="edge">
<title>execution&#45;&gt;tamper_manifests</title>
<path fill="none" stroke="#2b303a" d="M432.08,-520C432.08,-514.02 432.08,-507.65 432.08,-501.39"/>
<polygon fill="#2b303a" stroke="#2b303a" points="435.58,-501.06 432.08,-491.06 428.58,-501.06 435.58,-501.06"/>
</g>
<!-- attack_image&#45;&gt;exploit_vulnerability -->
<!-- dial_out -->
<g id="node7" class="node">
<title>dial_out</title>
<path fill="#ff92cc" stroke="transparent" d="M190.68,-276.2C190.68,-276.2 73.48,-276.2 73.48,-276.2 67.48,-276.2 61.48,-270.2 61.48,-264.2 61.48,-264.2 61.48,-227 61.48,-227 61.48,-221 67.48,-215 73.48,-215 73.48,-215 190.68,-215 190.68,-215 196.68,-215 202.68,-221 202.68,-227 202.68,-227 202.68,-264.2 202.68,-264.2 202.68,-270.2 196.68,-276.2 190.68,-276.2"/>
<text text-anchor="middle" x="132.08" y="-249.8" font-family="Arial" font-size="14.00">Attacker connects</text>
<text text-anchor="middle" x="132.08" y="-233" font-family="Arial" font-size="14.00">to external system</text>
</g>
<!-- attack_image&#45;&gt;dial_out -->
<g id="edge9" class="edge">
<title>attack_image&#45;&gt;dial_out</title>
<path fill="none" stroke="#2b303a" d="M119.86,-322.36C121.66,-311.25 123.72,-298.43 125.64,-286.53"/>
<polygon fill="#2b303a" stroke="#2b303a" points="129.14,-286.81 127.28,-276.38 122.23,-285.7 129.14,-286.81"/>
</g>
<!-- elevate_privileges -->
<g id="node9" class="node">
<title>elevate_privileges</title>
<path fill="#ff92cc" stroke="transparent" d="M315.56,-276.2C315.56,-276.2 228.61,-276.2 228.61,-276.2 222.61,-276.2 216.61,-270.2 216.61,-264.2 216.61,-264.2 216.61,-227 216.61,-227 216.61,-221 222.61,-215 228.61,-215 228.61,-215 315.56,-215 315.56,-215 321.56,-215 327.56,-221 327.56,-227 327.56,-227 327.56,-264.2 327.56,-264.2 327.56,-270.2 321.56,-276.2 315.56,-276.2"/>
<text text-anchor="middle" x="272.08" y="-249.8" font-family="Arial" font-size="14.00">Attacker runs</text>
<text text-anchor="middle" x="272.08" y="-233" font-family="Arial" font-size="14.00">privilged Pod</text>
</g>
<!-- attack_image&#45;&gt;elevate_privileges -->
<g id="edge14" class="edge">
<title>attack_image&#45;&gt;elevate_privileges</title>
<path fill="none" stroke="#2b303a" d="M159.23,-322.36C177.88,-309.84 199.74,-295.16 219.24,-282.08"/>
<polygon fill="#2b303a" stroke="#2b303a" points="221.37,-284.86 227.72,-276.38 217.47,-279.05 221.37,-284.86"/>
</g>
<!-- signImages -->
<g id="node10" class="node">
<title>signImages</title>
<path fill="#b9d6f2" stroke="transparent" d="M473.03,-276.2C473.03,-276.2 353.14,-276.2 353.14,-276.2 347.14,-276.2 341.14,-270.2 341.14,-264.2 341.14,-264.2 341.14,-227 341.14,-227 341.14,-221 347.14,-215 353.14,-215 353.14,-215 473.03,-215 473.03,-215 479.03,-215 485.03,-221 485.03,-227 485.03,-227 485.03,-264.2 485.03,-264.2 485.03,-270.2 479.03,-276.2 473.03,-276.2"/>
<text text-anchor="middle" x="413.08" y="-249.8" font-family="Arial" font-size="14.00">Require all images</text>
<text text-anchor="middle" x="413.08" y="-233" font-family="Arial" font-size="14.00">are signed</text>
</g>
<!-- attack_image&#45;&gt;signImages -->
<g id="edge16" class="edge">
<title>attack_image&#45;&gt;signImages</title>
<path fill="none" stroke="#2b303a" d="M175,-322.39C188.64,-316.28 203.2,-310.24 217.08,-305.4 264.7,-288.78 281.02,-291.87 331.11,-277.18"/>
<polygon fill="#2b303a" stroke="#2b303a" points="332.32,-280.48 340.87,-274.23 330.29,-273.78 332.32,-280.48"/>
</g>
<!-- host_access -->
<g id="node16" class="node">
<title>host_access</title>
<path fill="#5f00c2" stroke="transparent" d="M138.25,-61.4C138.25,-61.4 11.92,-61.4 11.92,-61.4 5.92,-61.4 -0.08,-55.4 -0.08,-49.4 -0.08,-49.4 -0.08,-12.2 -0.08,-12.2 -0.08,-6.2 5.92,-0.2 11.92,-0.2 11.92,-0.2 138.25,-0.2 138.25,-0.2 144.25,-0.2 150.25,-6.2 150.25,-12.2 150.25,-12.2 150.25,-49.4 150.25,-49.4 150.25,-55.4 144.25,-61.4 138.25,-61.4"/>
<text text-anchor="middle" x="75.08" y="-35" font-family="Arial" font-size="14.00" fill="#ffffff">Attacker get access</text>
<text text-anchor="middle" x="75.08" y="-18.2" font-family="Arial" font-size="14.00" fill="#ffffff">to host or cluster</text>
</g>
<!-- attack_image&#45;&gt;host_access -->
<g id="edge1" class="edge">
<title>attack_image&#45;&gt;host_access</title>
<path fill="none" stroke="#2b303a" d="M66.78,-322.28C51.47,-310.13 36.38,-294.61 28.08,-276.4 -6.17,-201.26 0.76,-168.53 28.08,-90.6 30.67,-83.23 34.61,-76.1 39.13,-69.49"/>
<polygon fill="#2b303a" stroke="#2b303a" points="41.96,-71.54 45.11,-61.43 36.34,-67.37 41.96,-71.54"/>
</g>
<!-- exploit_vulnerability&#45;&gt;dial_out -->
<g id="edge10" class="edge">
<title>exploit_vulnerability&#45;&gt;dial_out</title>
<path fill="none" stroke="#2b303a" d="M244.93,-322.36C226.29,-309.84 204.42,-295.16 184.93,-282.08"/>
<polygon fill="#2b303a" stroke="#2b303a" points="186.7,-279.05 176.45,-276.38 182.8,-284.86 186.7,-279.05"/>
</g>
<!-- exploit_vulnerability&#45;&gt;elevate_privileges -->
<g id="edge15" class="edge">
<title>exploit_vulnerability&#45;&gt;elevate_privileges</title>
<path fill="none" stroke="#2b303a" d="M284.3,-322.36C282.51,-311.25 280.44,-298.43 278.52,-286.53"/>
<polygon fill="#2b303a" stroke="#2b303a" points="281.93,-285.7 276.89,-276.38 275.02,-286.81 281.93,-285.7"/>
</g>
<!-- requireScan -->
<g id="node11" class="node">
<title>requireScan</title>
<path fill="#b9d6f2" stroke="transparent" d="M661.03,-276.2C661.03,-276.2 541.14,-276.2 541.14,-276.2 535.14,-276.2 529.14,-270.2 529.14,-264.2 529.14,-264.2 529.14,-227 529.14,-227 529.14,-221 535.14,-215 541.14,-215 541.14,-215 661.03,-215 661.03,-215 667.03,-215 673.03,-221 673.03,-227 673.03,-227 673.03,-264.2 673.03,-264.2 673.03,-270.2 667.03,-276.2 661.03,-276.2"/>
<text text-anchor="middle" x="601.08" y="-249.8" font-family="Arial" font-size="14.00">Require all images</text>
<text text-anchor="middle" x="601.08" y="-233" font-family="Arial" font-size="14.00">are scanned daily</text>
</g>
<!-- exploit_vulnerability&#45;&gt;requireScan -->
<g id="edge17" class="edge">
<title>exploit_vulnerability&#45;&gt;requireScan</title>
<path fill="none" stroke="#2b303a" d="M330.78,-322.3C340.99,-316.01 352.14,-309.92 363.08,-305.4 417.4,-282.97 435.06,-290.6 492.08,-276.4 500.89,-274.21 510.07,-271.83 519.21,-269.42"/>
<polygon fill="#2b303a" stroke="#2b303a" points="520.33,-272.74 529.09,-266.78 518.52,-265.98 520.33,-272.74"/>
</g>
<!-- exploit_vulnerability&#45;&gt;host_access -->
<g id="edge2" class="edge">
<title>exploit_vulnerability&#45;&gt;host_access</title>
<path fill="none" stroke="#2b303a" d="M229.8,-322.34C216.01,-316.16 201.21,-310.11 187.08,-305.4 129.68,-286.28 92.03,-323.52 54.08,-276.4 6.89,-217.81 34.76,-123.73 56.62,-70.95"/>
<polygon fill="#2b303a" stroke="#2b303a" points="59.9,-72.17 60.61,-61.6 53.47,-69.42 59.9,-72.17"/>
</g>
<!-- tamper_manifests&#45;&gt;dial_out -->
<g id="edge11" class="edge">
<title>tamper_manifests&#45;&gt;dial_out</title>
<path fill="none" stroke="#2b303a" d="M365.2,-457.42C318.06,-452.53 256.54,-438.57 217.08,-400.6 185.12,-369.84 209.46,-343.71 187.08,-305.4 182.72,-297.94 177.26,-290.65 171.49,-283.89"/>
<polygon fill="#2b303a" stroke="#2b303a" points="173.89,-281.33 164.61,-276.22 168.68,-286 173.89,-281.33"/>
</g>
<!-- bad_repo -->
<g id="node8" class="node">
<title>bad_repo</title>
<path fill="#ff92cc" stroke="transparent" d="M481.79,-383.6C481.79,-383.6 382.37,-383.6 382.37,-383.6 376.37,-383.6 370.37,-377.6 370.37,-371.6 370.37,-371.6 370.37,-334.4 370.37,-334.4 370.37,-328.4 376.37,-322.4 382.37,-322.4 382.37,-322.4 481.79,-322.4 481.79,-322.4 487.79,-322.4 493.79,-328.4 493.79,-334.4 493.79,-334.4 493.79,-371.6 493.79,-371.6 493.79,-377.6 487.79,-383.6 481.79,-383.6"/>
<text text-anchor="middle" x="432.08" y="-357.2" font-family="Arial" font-size="14.00">Attacker clones</text>
<text text-anchor="middle" x="432.08" y="-340.4" font-family="Arial" font-size="14.00">malicious repo</text>
</g>
<!-- tamper_manifests&#45;&gt;bad_repo -->
<g id="edge13" class="edge">
<title>tamper_manifests&#45;&gt;bad_repo</title>
<path fill="none" stroke="#2b303a" d="M432.08,-429.76C432.08,-418.65 432.08,-405.83 432.08,-393.93"/>
<polygon fill="#2b303a" stroke="#2b303a" points="435.58,-393.78 432.08,-383.78 428.58,-393.78 435.58,-393.78"/>
</g>
<!-- signManifests -->
<g id="node12" class="node">
<title>signManifests</title>
<path fill="#b9d6f2" stroke="transparent" d="M657.97,-400.7C657.97,-400.7 520.19,-400.7 520.19,-400.7 514.19,-400.7 508.19,-394.7 508.19,-388.7 508.19,-388.7 508.19,-317.3 508.19,-317.3 508.19,-311.3 514.19,-305.3 520.19,-305.3 520.19,-305.3 657.97,-305.3 657.97,-305.3 663.97,-305.3 669.97,-311.3 669.97,-317.3 669.97,-317.3 669.97,-388.7 669.97,-388.7 669.97,-394.7 663.97,-400.7 657.97,-400.7"/>
<text text-anchor="middle" x="589.08" y="-374" font-family="Arial" font-size="14.00">Require resource</text>
<text text-anchor="middle" x="589.08" y="-357.2" font-family="Arial" font-size="14.00">manifests are</text>
<text text-anchor="middle" x="589.08" y="-340.4" font-family="Arial" font-size="14.00">signed and cannot be</text>
<text text-anchor="middle" x="589.08" y="-323.6" font-family="Arial" font-size="14.00">tampered with</text>
</g>
<!-- tamper_manifests&#45;&gt;signManifests -->
<g id="edge18" class="edge">
<title>tamper_manifests&#45;&gt;signManifests</title>
<path fill="none" stroke="#2b303a" d="M476.23,-429.76C487.03,-422.51 498.92,-414.53 510.79,-406.56"/>
<polygon fill="#2b303a" stroke="#2b303a" points="513.07,-409.24 519.42,-400.76 509.17,-403.43 513.07,-409.24"/>
</g>
<!-- dial_out&#45;&gt;elevate_privileges -->
<!-- dial_out&#45;&gt;elevate_privileges -->
<!-- network_policies -->
<g id="node13" class="node">
<title>network_policies</title>
<path fill="#b9d6f2" stroke="transparent" d="M342.02,-168.8C342.02,-168.8 236.15,-168.8 236.15,-168.8 230.15,-168.8 224.15,-162.8 224.15,-156.8 224.15,-156.8 224.15,-119.6 224.15,-119.6 224.15,-113.6 230.15,-107.6 236.15,-107.6 236.15,-107.6 342.02,-107.6 342.02,-107.6 348.02,-107.6 354.02,-113.6 354.02,-119.6 354.02,-119.6 354.02,-156.8 354.02,-156.8 354.02,-162.8 348.02,-168.8 342.02,-168.8"/>
<text text-anchor="middle" x="289.08" y="-142.4" font-family="Arial" font-size="14.00">Require network</text>
<text text-anchor="middle" x="289.08" y="-125.6" font-family="Arial" font-size="14.00">policies</text>
</g>
<!-- dial_out&#45;&gt;network_policies -->
<g id="edge19" class="edge">
<title>dial_out&#45;&gt;network_policies</title>
<path fill="none" stroke="#2b303a" d="M176.23,-214.96C194.88,-202.44 216.74,-187.76 236.24,-174.68"/>
<polygon fill="#2b303a" stroke="#2b303a" points="238.37,-177.46 244.72,-168.98 234.47,-171.65 238.37,-177.46"/>
</g>
<!-- restrict_repos -->
<g id="node14" class="node">
<title>restrict_repos</title>
<path fill="#b9d6f2" stroke="transparent" d="M801.4,-276.2C801.4,-276.2 698.77,-276.2 698.77,-276.2 692.77,-276.2 686.77,-270.2 686.77,-264.2 686.77,-264.2 686.77,-227 686.77,-227 686.77,-221 692.77,-215 698.77,-215 698.77,-215 801.4,-215 801.4,-215 807.4,-215 813.4,-221 813.4,-227 813.4,-227 813.4,-264.2 813.4,-264.2 813.4,-270.2 807.4,-276.2 801.4,-276.2"/>
<text text-anchor="middle" x="750.08" y="-249.8" font-family="Arial" font-size="14.00">Restrict allowed</text>
<text text-anchor="middle" x="750.08" y="-233" font-family="Arial" font-size="14.00">repositories</text>
</g>
<!-- dial_out&#45;&gt;restrict_repos -->
<!-- send_info -->
<g id="node17" class="node">
<title>send_info</title>
<path fill="#5f00c2" stroke="transparent" d="M593.82,-61.4C593.82,-61.4 466.34,-61.4 466.34,-61.4 460.34,-61.4 454.34,-55.4 454.34,-49.4 454.34,-49.4 454.34,-12.2 454.34,-12.2 454.34,-6.2 460.34,-0.2 466.34,-0.2 466.34,-0.2 593.82,-0.2 593.82,-0.2 599.82,-0.2 605.82,-6.2 605.82,-12.2 605.82,-12.2 605.82,-49.4 605.82,-49.4 605.82,-55.4 599.82,-61.4 593.82,-61.4"/>
<text text-anchor="middle" x="530.08" y="-35" font-family="Arial" font-size="14.00" fill="#ffffff">Attacker sends data</text>
<text text-anchor="middle" x="530.08" y="-18.2" font-family="Arial" font-size="14.00" fill="#ffffff">to external system</text>
</g>
<!-- dial_out&#45;&gt;send_info -->
<g id="edge5" class="edge">
<title>dial_out&#45;&gt;send_info</title>
<path fill="none" stroke="#2b303a" d="M202.82,-216.64C205.26,-215.98 207.68,-215.36 210.08,-214.8 276.38,-199.29 466.88,-233.89 515.08,-185.8 544.42,-156.53 543.85,-106.61 538.76,-71.56"/>
<polygon fill="#2b303a" stroke="#2b303a" points="542.2,-70.96 537.14,-61.65 535.3,-72.08 542.2,-70.96"/>
</g>
<!-- bad_repo&#45;&gt;dial_out -->
<g id="edge12" class="edge">
<title>bad_repo&#45;&gt;dial_out</title>
<path fill="none" stroke="#2b303a" d="M392.67,-322.25C382.77,-315.89 371.88,-309.78 361.08,-305.4 300.72,-280.92 277.96,-293.76 212.83,-276.96"/>
<polygon fill="#2b303a" stroke="#2b303a" points="213.47,-273.51 202.9,-274.26 211.63,-280.26 213.47,-273.51"/>
</g>
<!-- bad_repo&#45;&gt;signManifests -->
<!-- bad_repo&#45;&gt;restrict_repos -->
<g id="edge20" class="edge">
<title>bad_repo&#45;&gt;restrict_repos</title>
<path fill="none" stroke="#2b303a" d="M469.83,-322.25C479.56,-315.81 490.33,-309.66 501.08,-305.4 572.93,-276.93 600.39,-296.99 676.56,-277.16"/>
<polygon fill="#2b303a" stroke="#2b303a" points="677.9,-280.42 686.61,-274.39 676.04,-273.68 677.9,-280.42"/>
</g>
<!-- bad_repo&#45;&gt;host_access -->
<g id="edge3" class="edge">
<title>bad_repo&#45;&gt;host_access</title>
<path fill="none" stroke="#2b303a" d="M462.31,-322.19C489.13,-292.16 520.08,-245.91 492.08,-214.8 450.97,-169.13 266.89,-221.79 217.08,-185.8 179.45,-158.61 205.03,-125.21 174.08,-90.6 166.22,-81.81 156.73,-73.95 146.77,-67.06"/>
<polygon fill="#2b303a" stroke="#2b303a" points="148.6,-64.07 138.33,-61.49 144.75,-69.92 148.6,-64.07"/>
</g>
<!-- elevate_privileges&#45;&gt;signImages -->
<!-- elevate_privileges&#45;&gt;requireScan -->
<!-- pod_security -->
<g id="node15" class="node">
<title>pod_security</title>
<path fill="#b9d6f2" stroke="transparent" d="M495.87,-185.9C495.87,-185.9 380.3,-185.9 380.3,-185.9 374.3,-185.9 368.3,-179.9 368.3,-173.9 368.3,-173.9 368.3,-102.5 368.3,-102.5 368.3,-96.5 374.3,-90.5 380.3,-90.5 380.3,-90.5 495.87,-90.5 495.87,-90.5 501.87,-90.5 507.87,-96.5 507.87,-102.5 507.87,-102.5 507.87,-173.9 507.87,-173.9 507.87,-179.9 501.87,-185.9 495.87,-185.9"/>
<text text-anchor="middle" x="438.08" y="-159.2" font-family="Arial" font-size="14.00">Require Pod</text>
<text text-anchor="middle" x="438.08" y="-142.4" font-family="Arial" font-size="14.00">Security Standard</text>
<text text-anchor="middle" x="438.08" y="-125.6" font-family="Arial" font-size="14.00">with Restricted</text>
<text text-anchor="middle" x="438.08" y="-108.8" font-family="Arial" font-size="14.00">profile</text>
</g>
<!-- elevate_privileges&#45;&gt;pod_security -->
<g id="edge21" class="edge">
<title>elevate_privileges&#45;&gt;pod_security</title>
<path fill="none" stroke="#2b303a" d="M318.76,-214.96C331.47,-206.89 345.59,-197.93 359.54,-189.07"/>
<polygon fill="#2b303a" stroke="#2b303a" points="361.63,-191.89 368.19,-183.57 357.88,-185.98 361.63,-191.89"/>
</g>
<!-- elevate_privileges&#45;&gt;host_access -->
<g id="edge4" class="edge">
<title>elevate_privileges&#45;&gt;host_access</title>
<path fill="none" stroke="#2b303a" d="M216.66,-217.91C185.14,-202.69 151.78,-186.49 151.08,-185.8 118.84,-153.76 98.05,-105.27 86.5,-71.28"/>
<polygon fill="#2b303a" stroke="#2b303a" points="89.79,-70.08 83.35,-61.67 83.14,-72.26 89.79,-70.08"/>
</g>
<!-- signImages&#45;&gt;host_access -->
<!-- signImages&#45;&gt;send_info -->
<!-- requireScan&#45;&gt;host_access -->
<!-- requireScan&#45;&gt;send_info -->
<!-- signManifests&#45;&gt;host_access -->
<!-- signManifests&#45;&gt;send_info -->
<!-- network_policies&#45;&gt;host_access -->
<!-- network_policies&#45;&gt;send_info -->
<!-- restrict_repos&#45;&gt;host_access -->
<!-- restrict_repos&#45;&gt;send_info -->
<!-- pod_security&#45;&gt;host_access -->
<!-- pod_security&#45;&gt;send_info -->
</g>
</svg>
