<?xml version="1.0" encoding="UTF-8" standalone="no"?>
<!DOCTYPE svg PUBLIC "-//W3C//DTD SVG 1.1//EN"
 "http://www.w3.org/Graphics/SVG/1.1/DTD/svg11.dtd">
<!-- Generated by graphviz version 3.0.0 (20220404.1115)
 -->
<!-- Pages: 1 -->
<svg width="909pt" height="762pt"
 viewBox="0.00 0.00 909.09 762.20" xmlns="http://www.w3.org/2000/svg" xmlns:xlink="http://www.w3.org/1999/xlink">
<g id="graph0" class="graph" transform="scale(1 1) rotate(0) translate(4 758.2)">
<polygon fill="white" stroke="transparent" points="-4,4 -4,-758.2 905.09,-758.2 905.09,4 -4,4"/>
<text text-anchor="middle" x="450.54" y="-737.6" font-family="Arial" font-size="14.00">Attack Tree for Tekton</text>
<!-- reality -->
<g id="node1" class="node">
<title>reality</title>
<path fill="#272727" stroke="transparent" d="M718.38,-729.3C718.38,-729.3 671.79,-729.3 671.79,-729.3 665.79,-729.3 659.79,-723.3 659.79,-717.3 659.79,-717.3 659.79,-696.7 659.79,-696.7 659.79,-690.7 665.79,-684.7 671.79,-684.7 671.79,-684.7 718.38,-684.7 718.38,-684.7 724.38,-684.7 730.38,-690.7 730.38,-696.7 730.38,-696.7 730.38,-717.3 730.38,-717.3 730.38,-723.3 724.38,-729.3 718.38,-729.3"/>
<text text-anchor="middle" x="695.09" y="-702.8" font-family="Arial" font-size="14.00" fill="#ffffff">Reality</text>
</g>
<!-- pipeline -->
<g id="node2" class="node">
<title>pipeline</title>
<path fill="#d2d5dd" stroke="transparent" d="M751.82,-655.4C751.82,-655.4 638.35,-655.4 638.35,-655.4 632.35,-655.4 626.35,-649.4 626.35,-643.4 626.35,-643.4 626.35,-606.2 626.35,-606.2 626.35,-600.2 632.35,-594.2 638.35,-594.2 638.35,-594.2 751.82,-594.2 751.82,-594.2 757.82,-594.2 763.82,-600.2 763.82,-606.2 763.82,-606.2 763.82,-643.4 763.82,-643.4 763.82,-649.4 757.82,-655.4 751.82,-655.4"/>
<text text-anchor="middle" x="695.09" y="-629" font-family="Arial" font-size="14.00">Pipeline executes</text>
<text text-anchor="middle" x="695.09" y="-612.2" font-family="Arial" font-size="14.00">Tasks</text>
</g>
<!-- reality&#45;&gt;pipeline -->
<g id="edge19" class="edge">
<title>reality&#45;&gt;pipeline</title>
<path fill="none" stroke="#2b303a" d="M695.09,-684.51C695.09,-678.66 695.09,-672.14 695.09,-665.62"/>
<polygon fill="#2b303a" stroke="#2b303a" points="698.59,-665.49 695.09,-655.49 691.59,-665.49 698.59,-665.49"/>
</g>
<!-- task -->
<g id="node3" class="node">
<title>task</title>
<path fill="#d2d5dd" stroke="transparent" d="M681.04,-556.5C681.04,-556.5 547.13,-556.5 547.13,-556.5 541.13,-556.5 535.13,-550.5 535.13,-544.5 535.13,-544.5 535.13,-523.9 535.13,-523.9 535.13,-517.9 541.13,-511.9 547.13,-511.9 547.13,-511.9 681.04,-511.9 681.04,-511.9 687.04,-511.9 693.04,-517.9 693.04,-523.9 693.04,-523.9 693.04,-544.5 693.04,-544.5 693.04,-550.5 687.04,-556.5 681.04,-556.5"/>
<text text-anchor="middle" x="614.09" y="-530" font-family="Arial" font-size="14.00">Task executes Steps</text>
</g>
<!-- pipeline&#45;&gt;task -->
<g id="edge20" class="edge">
<title>pipeline&#45;&gt;task</title>
<path fill="none" stroke="#2b303a" d="M667.66,-593.8C658.99,-584.31 649.41,-573.84 640.79,-564.4"/>
<polygon fill="#2b303a" stroke="#2b303a" points="643.13,-561.79 633.8,-556.77 637.97,-566.51 643.13,-561.79"/>
</g>
<!-- attackPipeline -->
<g id="node5" class="node">
<title>attackPipeline</title>
<path fill="#ff92cc" stroke="transparent" d="M832.83,-564.8C832.83,-564.8 719.34,-564.8 719.34,-564.8 713.34,-564.8 707.34,-558.8 707.34,-552.8 707.34,-552.8 707.34,-515.6 707.34,-515.6 707.34,-509.6 713.34,-503.6 719.34,-503.6 719.34,-503.6 832.83,-503.6 832.83,-503.6 838.83,-503.6 844.83,-509.6 844.83,-515.6 844.83,-515.6 844.83,-552.8 844.83,-552.8 844.83,-558.8 838.83,-564.8 832.83,-564.8"/>
<text text-anchor="middle" x="776.09" y="-538.4" font-family="Arial" font-size="14.00">Attacker runs an</text>
<text text-anchor="middle" x="776.09" y="-521.6" font-family="Arial" font-size="14.00">unknown Pipeline</text>
</g>
<!-- pipeline&#45;&gt;attackPipeline -->
<g id="edge6" class="edge">
<title>pipeline&#45;&gt;attackPipeline</title>
<path fill="none" stroke="#2b303a" d="M722.51,-593.8C728.78,-586.95 735.52,-579.58 742.02,-572.46"/>
<polygon fill="#2b303a" stroke="#2b303a" points="744.8,-574.61 748.97,-564.86 739.64,-569.88 744.8,-574.61"/>
</g>
<!-- image -->
<g id="node4" class="node">
<title>image</title>
<path fill="#d2d5dd" stroke="transparent" d="M453.69,-474.2C453.69,-474.2 378.49,-474.2 378.49,-474.2 372.49,-474.2 366.49,-468.2 366.49,-462.2 366.49,-462.2 366.49,-425 366.49,-425 366.49,-419 372.49,-413 378.49,-413 378.49,-413 453.69,-413 453.69,-413 459.69,-413 465.69,-419 465.69,-425 465.69,-425 465.69,-462.2 465.69,-462.2 465.69,-468.2 459.69,-474.2 453.69,-474.2"/>
<text text-anchor="middle" x="416.09" y="-447.8" font-family="Arial" font-size="14.00">Step runs a</text>
<text text-anchor="middle" x="416.09" y="-431" font-family="Arial" font-size="14.00">Container</text>
</g>
<!-- task&#45;&gt;image -->
<g id="edge21" class="edge">
<title>task&#45;&gt;image</title>
<path fill="none" stroke="#2b303a" d="M566.41,-511.87C538.94,-499.58 504.19,-484.03 475.02,-470.97"/>
<polygon fill="#2b303a" stroke="#2b303a" points="476.32,-467.72 465.77,-466.83 473.46,-474.11 476.32,-467.72"/>
</g>
<!-- task&#45;&gt;attackPipeline -->
<!-- attackTask -->
<g id="node6" class="node">
<title>attackTask</title>
<path fill="#ff92cc" stroke="transparent" d="M667.02,-474.2C667.02,-474.2 561.15,-474.2 561.15,-474.2 555.15,-474.2 549.15,-468.2 549.15,-462.2 549.15,-462.2 549.15,-425 549.15,-425 549.15,-419 555.15,-413 561.15,-413 561.15,-413 667.02,-413 667.02,-413 673.02,-413 679.02,-419 679.02,-425 679.02,-425 679.02,-462.2 679.02,-462.2 679.02,-468.2 673.02,-474.2 667.02,-474.2"/>
<text text-anchor="middle" x="614.09" y="-447.8" font-family="Arial" font-size="14.00">Attacker runs an</text>
<text text-anchor="middle" x="614.09" y="-431" font-family="Arial" font-size="14.00">unknown Task</text>
</g>
<!-- task&#45;&gt;attackTask -->
<g id="edge7" class="edge">
<title>task&#45;&gt;attackTask</title>
<path fill="none" stroke="#2b303a" d="M614.09,-511.75C614.09,-503.48 614.09,-493.74 614.09,-484.28"/>
<polygon fill="#2b303a" stroke="#2b303a" points="617.59,-484.22 614.09,-474.22 610.59,-484.22 617.59,-484.22"/>
</g>
<!-- image&#45;&gt;attackTask -->
<!-- attackImage -->
<g id="node7" class="node">
<title>attackImage</title>
<path fill="#ff92cc" stroke="transparent" d="M177.02,-375.2C177.02,-375.2 71.15,-375.2 71.15,-375.2 65.15,-375.2 59.15,-369.2 59.15,-363.2 59.15,-363.2 59.15,-326 59.15,-326 59.15,-320 65.15,-314 71.15,-314 71.15,-314 177.02,-314 177.02,-314 183.02,-314 189.02,-320 189.02,-326 189.02,-326 189.02,-363.2 189.02,-363.2 189.02,-369.2 183.02,-375.2 177.02,-375.2"/>
<text text-anchor="middle" x="124.09" y="-348.8" font-family="Arial" font-size="14.00">Attacker runs an</text>
<text text-anchor="middle" x="124.09" y="-332" font-family="Arial" font-size="14.00">unknown image</text>
</g>
<!-- image&#45;&gt;attackImage -->
<g id="edge8" class="edge">
<title>image&#45;&gt;attackImage</title>
<path fill="none" stroke="#2b303a" d="M366.13,-432.64C320.85,-422.83 252.75,-406.07 196.09,-383.8 192.83,-382.52 189.52,-381.13 186.22,-379.66"/>
<polygon fill="#2b303a" stroke="#2b303a" points="187.47,-376.38 176.92,-375.35 184.52,-382.73 187.47,-376.38"/>
</g>
<!-- exploitVulnerability -->
<g id="node8" class="node">
<title>exploitVulnerability</title>
<path fill="#ff92cc" stroke="transparent" d="M321.3,-384C321.3,-384 214.88,-384 214.88,-384 208.88,-384 202.88,-378 202.88,-372 202.88,-372 202.88,-317.2 202.88,-317.2 202.88,-311.2 208.88,-305.2 214.88,-305.2 214.88,-305.2 321.3,-305.2 321.3,-305.2 327.3,-305.2 333.3,-311.2 333.3,-317.2 333.3,-317.2 333.3,-372 333.3,-372 333.3,-378 327.3,-384 321.3,-384"/>
<text text-anchor="middle" x="268.09" y="-357.2" font-family="Arial" font-size="14.00">Attacker exploits</text>
<text text-anchor="middle" x="268.09" y="-340.4" font-family="Arial" font-size="14.00">an image</text>
<text text-anchor="middle" x="268.09" y="-323.6" font-family="Arial" font-size="14.00">vulnerability</text>
</g>
<!-- image&#45;&gt;exploitVulnerability -->
<g id="edge9" class="edge">
<title>image&#45;&gt;exploitVulnerability</title>
<path fill="none" stroke="#2b303a" d="M370.88,-412.97C359.48,-405.5 347,-397.32 334.8,-389.32"/>
<polygon fill="#2b303a" stroke="#2b303a" points="336.69,-386.38 326.4,-383.82 332.85,-392.23 336.69,-386.38"/>
</g>
<!-- misconfiguration -->
<g id="node9" class="node">
<title>misconfiguration</title>
<path fill="#ff92cc" stroke="transparent" d="M472.52,-384C472.52,-384 359.65,-384 359.65,-384 353.65,-384 347.65,-378 347.65,-372 347.65,-372 347.65,-317.2 347.65,-317.2 347.65,-311.2 353.65,-305.2 359.65,-305.2 359.65,-305.2 472.52,-305.2 472.52,-305.2 478.52,-305.2 484.52,-311.2 484.52,-317.2 484.52,-317.2 484.52,-372 484.52,-372 484.52,-378 478.52,-384 472.52,-384"/>
<text text-anchor="middle" x="416.09" y="-357.2" font-family="Arial" font-size="14.00">Attacker exploits</text>
<text text-anchor="middle" x="416.09" y="-340.4" font-family="Arial" font-size="14.00">Kubernetes</text>
<text text-anchor="middle" x="416.09" y="-323.6" font-family="Arial" font-size="14.00">misconfigurations</text>
</g>
<!-- image&#45;&gt;misconfiguration -->
<g id="edge10" class="edge">
<title>image&#45;&gt;misconfiguration</title>
<path fill="none" stroke="#2b303a" d="M416.09,-412.97C416.09,-406.97 416.09,-400.52 416.09,-394.07"/>
<polygon fill="#2b303a" stroke="#2b303a" points="419.59,-394 416.09,-384 412.59,-394 419.59,-394"/>
</g>
<!-- signPipeline -->
<g id="node10" class="node">
<title>signPipeline</title>
<path fill="#b9d6f2" stroke="transparent" d="M829.33,-474.2C829.33,-474.2 722.84,-474.2 722.84,-474.2 716.84,-474.2 710.84,-468.2 710.84,-462.2 710.84,-462.2 710.84,-425 710.84,-425 710.84,-419 716.84,-413 722.84,-413 722.84,-413 829.33,-413 829.33,-413 835.33,-413 841.33,-419 841.33,-425 841.33,-425 841.33,-462.2 841.33,-462.2 841.33,-468.2 835.33,-474.2 829.33,-474.2"/>
<text text-anchor="middle" x="776.09" y="-447.8" font-family="Arial" font-size="14.00">Require signed</text>
<text text-anchor="middle" x="776.09" y="-431" font-family="Arial" font-size="14.00">Pipeline bundles</text>
</g>
<!-- attackPipeline&#45;&gt;signPipeline -->
<g id="edge11" class="edge">
<title>attackPipeline&#45;&gt;signPipeline</title>
<path fill="none" stroke="#2b303a" d="M776.09,-503.2C776.09,-497.22 776.09,-490.85 776.09,-484.59"/>
<polygon fill="#2b303a" stroke="#2b303a" points="779.59,-484.26 776.09,-474.26 772.59,-484.26 779.59,-484.26"/>
</g>
<!-- unauthorizedAccess -->
<g id="node18" class="node">
<title>unauthorizedAccess</title>
<path fill="#5f00c2" stroke="transparent" d="M733.25,-61.4C733.25,-61.4 606.92,-61.4 606.92,-61.4 600.92,-61.4 594.92,-55.4 594.92,-49.4 594.92,-49.4 594.92,-12.2 594.92,-12.2 594.92,-6.2 600.92,-0.2 606.92,-0.2 606.92,-0.2 733.25,-0.2 733.25,-0.2 739.25,-0.2 745.25,-6.2 745.25,-12.2 745.25,-12.2 745.25,-49.4 745.25,-49.4 745.25,-55.4 739.25,-61.4 733.25,-61.4"/>
<text text-anchor="middle" x="670.09" y="-35" font-family="Arial" font-size="14.00" fill="#ffffff">Attacker get access</text>
<text text-anchor="middle" x="670.09" y="-18.2" font-family="Arial" font-size="14.00" fill="#ffffff">to host or cluster</text>
</g>
<!-- attackPipeline&#45;&gt;unauthorizedAccess -->
<g id="edge1" class="edge">
<title>attackPipeline&#45;&gt;unauthorizedAccess</title>
<path fill="none" stroke="#2b303a" d="M819.73,-503.37C829.98,-494.88 840.2,-485.03 848.09,-474.4 884.96,-424.68 901.09,-407.5 901.09,-345.6 901.09,-345.6 901.09,-345.6 901.09,-227.8 901.09,-158.94 880.82,-136.05 829.09,-90.6 808.11,-72.17 780.86,-59.33 754.85,-50.46"/>
<polygon fill="#2b303a" stroke="#2b303a" points="755.93,-47.13 745.34,-47.37 753.77,-53.79 755.93,-47.13"/>
</g>
<!-- signTask -->
<g id="node11" class="node">
<title>signTask</title>
<path fill="#b9d6f2" stroke="transparent" d="M643.49,-375.2C643.49,-375.2 510.69,-375.2 510.69,-375.2 504.69,-375.2 498.69,-369.2 498.69,-363.2 498.69,-363.2 498.69,-326 498.69,-326 498.69,-320 504.69,-314 510.69,-314 510.69,-314 643.49,-314 643.49,-314 649.49,-314 655.49,-320 655.49,-326 655.49,-326 655.49,-363.2 655.49,-363.2 655.49,-369.2 649.49,-375.2 643.49,-375.2"/>
<text text-anchor="middle" x="577.09" y="-348.8" font-family="Arial" font-size="14.00">Require signed Task</text>
<text text-anchor="middle" x="577.09" y="-332" font-family="Arial" font-size="14.00">bundles</text>
</g>
<!-- attackTask&#45;&gt;signTask -->
<g id="edge12" class="edge">
<title>attackTask&#45;&gt;signTask</title>
<path fill="none" stroke="#2b303a" d="M602.78,-412.97C599.41,-404.12 595.65,-394.28 592.08,-384.91"/>
<polygon fill="#2b303a" stroke="#2b303a" points="595.28,-383.48 588.45,-375.38 588.74,-385.97 595.28,-383.48"/>
</g>
<!-- blockTaskRun -->
<g id="node12" class="node">
<title>blockTaskRun</title>
<path fill="#b9d6f2" stroke="transparent" d="M806.98,-375.2C806.98,-375.2 681.19,-375.2 681.19,-375.2 675.19,-375.2 669.19,-369.2 669.19,-363.2 669.19,-363.2 669.19,-326 669.19,-326 669.19,-320 675.19,-314 681.19,-314 681.19,-314 806.98,-314 806.98,-314 812.98,-314 818.98,-320 818.98,-326 818.98,-326 818.98,-363.2 818.98,-363.2 818.98,-369.2 812.98,-375.2 806.98,-375.2"/>
<text text-anchor="middle" x="744.09" y="-348.8" font-family="Arial" font-size="14.00">Block users from</text>
<text text-anchor="middle" x="744.09" y="-332" font-family="Arial" font-size="14.00">creating a TaskRun</text>
</g>
<!-- attackTask&#45;&gt;blockTaskRun -->
<g id="edge13" class="edge">
<title>attackTask&#45;&gt;blockTaskRun</title>
<path fill="none" stroke="#2b303a" d="M653.8,-412.97C667.15,-403 682.2,-391.78 696.12,-381.39"/>
<polygon fill="#2b303a" stroke="#2b303a" points="698.25,-384.17 704.17,-375.38 694.06,-378.56 698.25,-384.17"/>
</g>
<!-- attackTask&#45;&gt;unauthorizedAccess -->
<g id="edge2" class="edge">
<title>attackTask&#45;&gt;unauthorizedAccess</title>
<path fill="none" stroke="#2b303a" d="M679.26,-420.29C687.58,-417.65 696.01,-415.09 704.09,-412.8 757.7,-397.58 791.53,-427.53 826.09,-383.8 876.32,-320.23 826.53,-166.62 769.09,-90.6 762.44,-81.81 754.07,-74.08 745.02,-67.36"/>
<polygon fill="#2b303a" stroke="#2b303a" points="746.76,-64.3 736.55,-61.47 742.76,-70.05 746.76,-64.3"/>
</g>
<!-- attackImage&#45;&gt;exploitVulnerability -->
<!-- signImages -->
<g id="node13" class="node">
<title>signImages</title>
<path fill="#b9d6f2" stroke="transparent" d="M110.26,-259.4C110.26,-259.4 11.91,-259.4 11.91,-259.4 5.91,-259.4 -0.09,-253.4 -0.09,-247.4 -0.09,-247.4 -0.09,-210.2 -0.09,-210.2 -0.09,-204.2 5.91,-198.2 11.91,-198.2 11.91,-198.2 110.26,-198.2 110.26,-198.2 116.26,-198.2 122.26,-204.2 122.26,-210.2 122.26,-210.2 122.26,-247.4 122.26,-247.4 122.26,-253.4 116.26,-259.4 110.26,-259.4"/>
<text text-anchor="middle" x="61.09" y="-233" font-family="Arial" font-size="14.00">Require signed</text>
<text text-anchor="middle" x="61.09" y="-216.2" font-family="Arial" font-size="14.00">images</text>
</g>
<!-- attackImage&#45;&gt;signImages -->
<g id="edge14" class="edge">
<title>attackImage&#45;&gt;signImages</title>
<path fill="none" stroke="#2b303a" d="M107.7,-314C100.03,-300.15 90.79,-283.46 82.57,-268.62"/>
<polygon fill="#2b303a" stroke="#2b303a" points="85.52,-266.7 77.61,-259.65 79.39,-270.09 85.52,-266.7"/>
</g>
<!-- attackImage&#45;&gt;unauthorizedAccess -->
<g id="edge3" class="edge">
<title>attackImage&#45;&gt;unauthorizedAccess</title>
<path fill="none" stroke="#2b303a" d="M125.28,-313.9C127.78,-279.86 135.47,-223.35 159.09,-181.2 187.6,-130.3 201.58,-116.03 254.09,-90.6 310.79,-63.14 480.39,-45.96 584.7,-37.7"/>
<polygon fill="#2b303a" stroke="#2b303a" points="585.2,-41.17 594.9,-36.9 584.66,-34.19 585.2,-41.17"/>
</g>
<!-- exploitVulnerability&#45;&gt;misconfiguration -->
<!-- requireScans -->
<g id="node14" class="node">
<title>requireScans</title>
<path fill="#b9d6f2" stroke="transparent" d="M280.13,-276.5C280.13,-276.5 178.04,-276.5 178.04,-276.5 172.04,-276.5 166.04,-270.5 166.04,-264.5 166.04,-264.5 166.04,-193.1 166.04,-193.1 166.04,-187.1 172.04,-181.1 178.04,-181.1 178.04,-181.1 280.13,-181.1 280.13,-181.1 286.13,-181.1 292.13,-187.1 292.13,-193.1 292.13,-193.1 292.13,-264.5 292.13,-264.5 292.13,-270.5 286.13,-276.5 280.13,-276.5"/>
<text text-anchor="middle" x="229.09" y="-249.8" font-family="Arial" font-size="14.00">Require recent</text>
<text text-anchor="middle" x="229.09" y="-233" font-family="Arial" font-size="14.00">vulnerability</text>
<text text-anchor="middle" x="229.09" y="-216.2" font-family="Arial" font-size="14.00">scans as in&#45;toto</text>
<text text-anchor="middle" x="229.09" y="-199.4" font-family="Arial" font-size="14.00">attestations</text>
</g>
<!-- exploitVulnerability&#45;&gt;requireScans -->
<g id="edge15" class="edge">
<title>exploitVulnerability&#45;&gt;requireScans</title>
<path fill="none" stroke="#2b303a" d="M254.99,-305.39C252.85,-299.14 250.59,-292.56 248.34,-285.98"/>
<polygon fill="#2b303a" stroke="#2b303a" points="251.61,-284.73 245.06,-276.4 244.99,-287 251.61,-284.73"/>
</g>
<!-- exploitVulnerability&#45;&gt;unauthorizedAccess -->
<g id="edge4" class="edge">
<title>exploitVulnerability&#45;&gt;unauthorizedAccess</title>
<path fill="none" stroke="#2b303a" d="M287.96,-305.22C292.14,-295.97 296.16,-285.99 299.09,-276.4 323.5,-196.39 270.25,-150.06 329.09,-90.6 363.97,-55.34 495.74,-41.1 584.89,-35.44"/>
<polygon fill="#2b303a" stroke="#2b303a" points="585.23,-38.92 595,-34.82 584.8,-31.94 585.23,-38.92"/>
</g>
<!-- requireNamespace -->
<g id="node15" class="node">
<title>requireNamespace</title>
<path fill="#b9d6f2" stroke="transparent" d="M484.38,-251.1C484.38,-251.1 347.79,-251.1 347.79,-251.1 341.79,-251.1 335.79,-245.1 335.79,-239.1 335.79,-239.1 335.79,-218.5 335.79,-218.5 335.79,-212.5 341.79,-206.5 347.79,-206.5 347.79,-206.5 484.38,-206.5 484.38,-206.5 490.38,-206.5 496.38,-212.5 496.38,-218.5 496.38,-218.5 496.38,-239.1 496.38,-239.1 496.38,-245.1 490.38,-251.1 484.38,-251.1"/>
<text text-anchor="middle" x="416.09" y="-224.6" font-family="Arial" font-size="14.00">Require namespaces</text>
</g>
<!-- misconfiguration&#45;&gt;requireNamespace -->
<g id="edge16" class="edge">
<title>misconfiguration&#45;&gt;requireNamespace</title>
<path fill="none" stroke="#2b303a" d="M416.09,-305.39C416.09,-291.12 416.09,-275.09 416.09,-261.48"/>
<polygon fill="#2b303a" stroke="#2b303a" points="419.59,-261.16 416.09,-251.16 412.59,-261.16 419.59,-261.16"/>
</g>
<!-- requireSecurityContext -->
<g id="node17" class="node">
<title>requireSecurityContext</title>
<path fill="#b9d6f2" stroke="transparent" d="M636.1,-259.4C636.1,-259.4 522.08,-259.4 522.08,-259.4 516.08,-259.4 510.08,-253.4 510.08,-247.4 510.08,-247.4 510.08,-210.2 510.08,-210.2 510.08,-204.2 516.08,-198.2 522.08,-198.2 522.08,-198.2 636.1,-198.2 636.1,-198.2 642.1,-198.2 648.1,-204.2 648.1,-210.2 648.1,-210.2 648.1,-247.4 648.1,-247.4 648.1,-253.4 642.1,-259.4 636.1,-259.4"/>
<text text-anchor="middle" x="579.09" y="-233" font-family="Arial" font-size="14.00">Require container</text>
<text text-anchor="middle" x="579.09" y="-216.2" font-family="Arial" font-size="14.00">securityContext</text>
</g>
<!-- misconfiguration&#45;&gt;requireSecurityContext -->
<g id="edge18" class="edge">
<title>misconfiguration&#45;&gt;requireSecurityContext</title>
<path fill="none" stroke="#2b303a" d="M470.82,-305.39C489.42,-292.4 510.12,-277.95 528.4,-265.19"/>
<polygon fill="#2b303a" stroke="#2b303a" points="530.42,-268.05 536.61,-259.45 526.41,-262.31 530.42,-268.05"/>
</g>
<!-- misconfiguration&#45;&gt;unauthorizedAccess -->
<g id="edge5" class="edge">
<title>misconfiguration&#45;&gt;unauthorizedAccess</title>
<path fill="none" stroke="#2b303a" d="M484.9,-307.95C487.3,-307.05 489.7,-306.19 492.09,-305.4 561.91,-282.19 606.13,-331.33 655.09,-276.4 681.18,-247.13 677.47,-133.19 673.35,-71.69"/>
<polygon fill="#2b303a" stroke="#2b303a" points="676.83,-71.3 672.64,-61.57 669.85,-71.79 676.83,-71.3"/>
</g>
<!-- signPipeline&#45;&gt;unauthorizedAccess -->
<!-- signTask&#45;&gt;blockTaskRun -->
<!-- signTask&#45;&gt;unauthorizedAccess -->
<!-- blockTaskRun&#45;&gt;unauthorizedAccess -->
<!-- signImages&#45;&gt;unauthorizedAccess -->
<!-- requireScans&#45;&gt;unauthorizedAccess -->
<!-- generateNamespaceDefaults -->
<g id="node16" class="node">
<title>generateNamespaceDefaults</title>
<path fill="#b9d6f2" stroke="transparent" d="M488.55,-152C488.55,-152 347.62,-152 347.62,-152 341.62,-152 335.62,-146 335.62,-140 335.62,-140 335.62,-102.8 335.62,-102.8 335.62,-96.8 341.62,-90.8 347.62,-90.8 347.62,-90.8 488.55,-90.8 488.55,-90.8 494.55,-90.8 500.55,-96.8 500.55,-102.8 500.55,-102.8 500.55,-140 500.55,-140 500.55,-146 494.55,-152 488.55,-152"/>
<text text-anchor="middle" x="418.09" y="-125.6" font-family="Arial" font-size="14.00">Generate Namespace</text>
<text text-anchor="middle" x="418.09" y="-108.8" font-family="Arial" font-size="14.00">defaults</text>
</g>
<!-- requireNamespace&#45;&gt;generateNamespaceDefaults -->
<g id="edge17" class="edge">
<title>requireNamespace&#45;&gt;generateNamespaceDefaults</title>
<path fill="none" stroke="#2b303a" d="M416.49,-206.47C416.73,-193.76 417.05,-177.23 417.33,-162.19"/>
<polygon fill="#2b303a" stroke="#2b303a" points="420.83,-162.15 417.52,-152.08 413.83,-162.02 420.83,-162.15"/>
</g>
<!-- requireNamespace&#45;&gt;requireSecurityContext -->
<!-- generateNamespaceDefaults&#45;&gt;unauthorizedAccess -->
<!-- requireSecurityContext&#45;&gt;unauthorizedAccess -->
</g>
</svg>
