<?xml version="1.0" encoding="UTF-8" standalone="no"?>
<!DOCTYPE svg PUBLIC "-//W3C//DTD SVG 1.1//EN"
 "http://www.w3.org/Graphics/SVG/1.1/DTD/svg11.dtd">
<!-- Generated by graphviz version 3.0.0 (20220404.1115)
 -->
<!-- Pages: 1 -->
<svg width="805pt" height="762pt"
 viewBox="0.00 0.00 804.83 762.20" xmlns="http://www.w3.org/2000/svg" xmlns:xlink="http://www.w3.org/1999/xlink">
<g id="graph0" class="graph" transform="scale(1 1) rotate(0) translate(4 758.2)">
<polygon fill="white" stroke="transparent" points="-4,4 -4,-758.2 800.83,-758.2 800.83,4 -4,4"/>
<text text-anchor="middle" x="398.42" y="-737.6" font-family="Arial" font-size="14.00">Attack Tree for Tekton</text>
<!-- reality -->
<g id="node1" class="node">
<title>reality</title>
<path fill="#272727" stroke="transparent" d="M658.38,-729.3C658.38,-729.3 611.79,-729.3 611.79,-729.3 605.79,-729.3 599.79,-723.3 599.79,-717.3 599.79,-717.3 599.79,-696.7 599.79,-696.7 599.79,-690.7 605.79,-684.7 611.79,-684.7 611.79,-684.7 658.38,-684.7 658.38,-684.7 664.38,-684.7 670.38,-690.7 670.38,-696.7 670.38,-696.7 670.38,-717.3 670.38,-717.3 670.38,-723.3 664.38,-729.3 658.38,-729.3"/>
<text text-anchor="middle" x="635.09" y="-702.8" font-family="Arial" font-size="14.00" fill="#ffffff">Reality</text>
</g>
<!-- pipeline -->
<g id="node2" class="node">
<title>pipeline</title>
<path fill="#d2d5dd" stroke="transparent" d="M691.82,-655.4C691.82,-655.4 578.35,-655.4 578.35,-655.4 572.35,-655.4 566.35,-649.4 566.35,-643.4 566.35,-643.4 566.35,-606.2 566.35,-606.2 566.35,-600.2 572.35,-594.2 578.35,-594.2 578.35,-594.2 691.82,-594.2 691.82,-594.2 697.82,-594.2 703.82,-600.2 703.82,-606.2 703.82,-606.2 703.82,-643.4 703.82,-643.4 703.82,-649.4 697.82,-655.4 691.82,-655.4"/>
<text text-anchor="middle" x="635.09" y="-629" font-family="Arial" font-size="14.00">Pipeline executes</text>
<text text-anchor="middle" x="635.09" y="-612.2" font-family="Arial" font-size="14.00">Tasks</text>
</g>
<!-- reality&#45;&gt;pipeline -->
<g id="edge18" class="edge">
<title>reality&#45;&gt;pipeline</title>
<path fill="none" stroke="#2b303a" d="M635.09,-684.51C635.09,-678.66 635.09,-672.14 635.09,-665.62"/>
<polygon fill="#2b303a" stroke="#2b303a" points="638.59,-665.49 635.09,-655.49 631.59,-665.49 638.59,-665.49"/>
</g>
<!-- task -->
<g id="node3" class="node">
<title>task</title>
<path fill="#d2d5dd" stroke="transparent" d="M621.04,-556.5C621.04,-556.5 487.13,-556.5 487.13,-556.5 481.13,-556.5 475.13,-550.5 475.13,-544.5 475.13,-544.5 475.13,-523.9 475.13,-523.9 475.13,-517.9 481.13,-511.9 487.13,-511.9 487.13,-511.9 621.04,-511.9 621.04,-511.9 627.04,-511.9 633.04,-517.9 633.04,-523.9 633.04,-523.9 633.04,-544.5 633.04,-544.5 633.04,-550.5 627.04,-556.5 621.04,-556.5"/>
<text text-anchor="middle" x="554.09" y="-530" font-family="Arial" font-size="14.00">Task executes Steps</text>
</g>
<!-- pipeline&#45;&gt;task -->
<g id="edge19" class="edge">
<title>pipeline&#45;&gt;task</title>
<path fill="none" stroke="#2b303a" d="M607.66,-593.8C598.99,-584.31 589.41,-573.84 580.79,-564.4"/>
<polygon fill="#2b303a" stroke="#2b303a" points="583.13,-561.79 573.8,-556.77 577.97,-566.51 583.13,-561.79"/>
</g>
<!-- attackPipeline -->
<g id="node5" class="node">
<title>attackPipeline</title>
<path fill="#ff92cc" stroke="transparent" d="M772.83,-564.8C772.83,-564.8 659.34,-564.8 659.34,-564.8 653.34,-564.8 647.34,-558.8 647.34,-552.8 647.34,-552.8 647.34,-515.6 647.34,-515.6 647.34,-509.6 653.34,-503.6 659.34,-503.6 659.34,-503.6 772.83,-503.6 772.83,-503.6 778.83,-503.6 784.83,-509.6 784.83,-515.6 784.83,-515.6 784.83,-552.8 784.83,-552.8 784.83,-558.8 778.83,-564.8 772.83,-564.8"/>
<text text-anchor="middle" x="716.09" y="-538.4" font-family="Arial" font-size="14.00">Attacker runs an</text>
<text text-anchor="middle" x="716.09" y="-521.6" font-family="Arial" font-size="14.00">unknown Pipeline</text>
</g>
<!-- pipeline&#45;&gt;attackPipeline -->
<g id="edge6" class="edge">
<title>pipeline&#45;&gt;attackPipeline</title>
<path fill="none" stroke="#2b303a" d="M662.51,-593.8C668.78,-586.95 675.52,-579.58 682.02,-572.46"/>
<polygon fill="#2b303a" stroke="#2b303a" points="684.8,-574.61 688.97,-564.86 679.64,-569.88 684.8,-574.61"/>
</g>
<!-- image -->
<g id="node4" class="node">
<title>image</title>
<path fill="#d2d5dd" stroke="transparent" d="M471.69,-474.2C471.69,-474.2 396.49,-474.2 396.49,-474.2 390.49,-474.2 384.49,-468.2 384.49,-462.2 384.49,-462.2 384.49,-425 384.49,-425 384.49,-419 390.49,-413 396.49,-413 396.49,-413 471.69,-413 471.69,-413 477.69,-413 483.69,-419 483.69,-425 483.69,-425 483.69,-462.2 483.69,-462.2 483.69,-468.2 477.69,-474.2 471.69,-474.2"/>
<text text-anchor="middle" x="434.09" y="-447.8" font-family="Arial" font-size="14.00">Step runs a</text>
<text text-anchor="middle" x="434.09" y="-431" font-family="Arial" font-size="14.00">Container</text>
</g>
<!-- task&#45;&gt;image -->
<g id="edge20" class="edge">
<title>task&#45;&gt;image</title>
<path fill="none" stroke="#2b303a" d="M525.04,-511.75C512.28,-502.33 496.95,-491.02 482.55,-480.38"/>
<polygon fill="#2b303a" stroke="#2b303a" points="484.32,-477.34 474.2,-474.22 480.17,-482.97 484.32,-477.34"/>
</g>
<!-- task&#45;&gt;attackPipeline -->
<!-- attackTask -->
<g id="node6" class="node">
<title>attackTask</title>
<path fill="#ff92cc" stroke="transparent" d="M616.02,-474.2C616.02,-474.2 510.15,-474.2 510.15,-474.2 504.15,-474.2 498.15,-468.2 498.15,-462.2 498.15,-462.2 498.15,-425 498.15,-425 498.15,-419 504.15,-413 510.15,-413 510.15,-413 616.02,-413 616.02,-413 622.02,-413 628.02,-419 628.02,-425 628.02,-425 628.02,-462.2 628.02,-462.2 628.02,-468.2 622.02,-474.2 616.02,-474.2"/>
<text text-anchor="middle" x="563.09" y="-447.8" font-family="Arial" font-size="14.00">Attacker runs an</text>
<text text-anchor="middle" x="563.09" y="-431" font-family="Arial" font-size="14.00">unknown Task</text>
</g>
<!-- task&#45;&gt;attackTask -->
<g id="edge7" class="edge">
<title>task&#45;&gt;attackTask</title>
<path fill="none" stroke="#2b303a" d="M556.26,-511.75C557.11,-503.48 558.09,-493.74 559.05,-484.28"/>
<polygon fill="#2b303a" stroke="#2b303a" points="562.55,-484.52 560.08,-474.22 555.58,-483.81 562.55,-484.52"/>
</g>
<!-- image&#45;&gt;attackTask -->
<!-- attackImage -->
<g id="node7" class="node">
<title>attackImage</title>
<path fill="#ff92cc" stroke="transparent" d="M197.02,-375.2C197.02,-375.2 91.15,-375.2 91.15,-375.2 85.15,-375.2 79.15,-369.2 79.15,-363.2 79.15,-363.2 79.15,-326 79.15,-326 79.15,-320 85.15,-314 91.15,-314 91.15,-314 197.02,-314 197.02,-314 203.02,-314 209.02,-320 209.02,-326 209.02,-326 209.02,-363.2 209.02,-363.2 209.02,-369.2 203.02,-375.2 197.02,-375.2"/>
<text text-anchor="middle" x="144.09" y="-348.8" font-family="Arial" font-size="14.00">Attacker runs an</text>
<text text-anchor="middle" x="144.09" y="-332" font-family="Arial" font-size="14.00">unknown image</text>
</g>
<!-- image&#45;&gt;attackImage -->
<g id="edge8" class="edge">
<title>image&#45;&gt;attackImage</title>
<path fill="none" stroke="#2b303a" d="M384.15,-432.49C339.29,-422.62 272.06,-405.87 216.09,-383.8 212.83,-382.52 209.53,-381.12 206.22,-379.65"/>
<polygon fill="#2b303a" stroke="#2b303a" points="207.47,-376.37 196.93,-375.34 204.53,-382.72 207.47,-376.37"/>
</g>
<!-- exploitVulnerability -->
<g id="node8" class="node">
<title>exploitVulnerability</title>
<path fill="#ff92cc" stroke="transparent" d="M341.3,-384C341.3,-384 234.88,-384 234.88,-384 228.88,-384 222.88,-378 222.88,-372 222.88,-372 222.88,-317.2 222.88,-317.2 222.88,-311.2 228.88,-305.2 234.88,-305.2 234.88,-305.2 341.3,-305.2 341.3,-305.2 347.3,-305.2 353.3,-311.2 353.3,-317.2 353.3,-317.2 353.3,-372 353.3,-372 353.3,-378 347.3,-384 341.3,-384"/>
<text text-anchor="middle" x="288.09" y="-357.2" font-family="Arial" font-size="14.00">Attacker exploits</text>
<text text-anchor="middle" x="288.09" y="-340.4" font-family="Arial" font-size="14.00">an image</text>
<text text-anchor="middle" x="288.09" y="-323.6" font-family="Arial" font-size="14.00">vulnerability</text>
</g>
<!-- image&#45;&gt;exploitVulnerability -->
<g id="edge9" class="edge">
<title>image&#45;&gt;exploitVulnerability</title>
<path fill="none" stroke="#2b303a" d="M389.49,-412.97C378.35,-405.57 366.17,-397.48 354.24,-389.55"/>
<polygon fill="#2b303a" stroke="#2b303a" points="355.88,-386.44 345.62,-383.82 352.01,-392.27 355.88,-386.44"/>
</g>
<!-- misconfiguration -->
<g id="node9" class="node">
<title>misconfiguration</title>
<path fill="#ff92cc" stroke="transparent" d="M492.52,-384C492.52,-384 379.65,-384 379.65,-384 373.65,-384 367.65,-378 367.65,-372 367.65,-372 367.65,-317.2 367.65,-317.2 367.65,-311.2 373.65,-305.2 379.65,-305.2 379.65,-305.2 492.52,-305.2 492.52,-305.2 498.52,-305.2 504.52,-311.2 504.52,-317.2 504.52,-317.2 504.52,-372 504.52,-372 504.52,-378 498.52,-384 492.52,-384"/>
<text text-anchor="middle" x="436.09" y="-357.2" font-family="Arial" font-size="14.00">Attacker exploits</text>
<text text-anchor="middle" x="436.09" y="-340.4" font-family="Arial" font-size="14.00">Kubernetes</text>
<text text-anchor="middle" x="436.09" y="-323.6" font-family="Arial" font-size="14.00">misconfigurations</text>
</g>
<!-- image&#45;&gt;misconfiguration -->
<g id="edge10" class="edge">
<title>image&#45;&gt;misconfiguration</title>
<path fill="none" stroke="#2b303a" d="M434.7,-412.97C434.82,-406.97 434.95,-400.52 435.09,-394.07"/>
<polygon fill="#2b303a" stroke="#2b303a" points="438.59,-394.07 435.29,-384 431.59,-393.92 438.59,-394.07"/>
</g>
<!-- signPipeline -->
<g id="node10" class="node">
<title>signPipeline</title>
<path fill="#b9d6f2" stroke="transparent" d="M760.33,-474.2C760.33,-474.2 653.84,-474.2 653.84,-474.2 647.84,-474.2 641.84,-468.2 641.84,-462.2 641.84,-462.2 641.84,-425 641.84,-425 641.84,-419 647.84,-413 653.84,-413 653.84,-413 760.33,-413 760.33,-413 766.33,-413 772.33,-419 772.33,-425 772.33,-425 772.33,-462.2 772.33,-462.2 772.33,-468.2 766.33,-474.2 760.33,-474.2"/>
<text text-anchor="middle" x="707.09" y="-447.8" font-family="Arial" font-size="14.00">Require signed</text>
<text text-anchor="middle" x="707.09" y="-431" font-family="Arial" font-size="14.00">Pipeline bundles</text>
</g>
<!-- attackPipeline&#45;&gt;signPipeline -->
<g id="edge11" class="edge">
<title>attackPipeline&#45;&gt;signPipeline</title>
<path fill="none" stroke="#2b303a" d="M713.04,-503.2C712.43,-497.22 711.78,-490.85 711.15,-484.59"/>
<polygon fill="#2b303a" stroke="#2b303a" points="714.59,-483.86 710.1,-474.26 707.63,-484.57 714.59,-483.86"/>
</g>
<!-- unauthorizedAccess -->
<g id="node17" class="node">
<title>unauthorizedAccess</title>
<path fill="#5f00c2" stroke="transparent" d="M733.25,-61.4C733.25,-61.4 606.92,-61.4 606.92,-61.4 600.92,-61.4 594.92,-55.4 594.92,-49.4 594.92,-49.4 594.92,-12.2 594.92,-12.2 594.92,-6.2 600.92,-0.2 606.92,-0.2 606.92,-0.2 733.25,-0.2 733.25,-0.2 739.25,-0.2 745.25,-6.2 745.25,-12.2 745.25,-12.2 745.25,-49.4 745.25,-49.4 745.25,-55.4 739.25,-61.4 733.25,-61.4"/>
<text text-anchor="middle" x="670.09" y="-35" font-family="Arial" font-size="14.00" fill="#ffffff">Attacker get access</text>
<text text-anchor="middle" x="670.09" y="-18.2" font-family="Arial" font-size="14.00" fill="#ffffff">to host or cluster</text>
</g>
<!-- attackPipeline&#45;&gt;unauthorizedAccess -->
<g id="edge1" class="edge">
<title>attackPipeline&#45;&gt;unauthorizedAccess</title>
<path fill="none" stroke="#2b303a" d="M756.49,-503.5C765.31,-495.07 773.62,-485.22 779.09,-474.4 805.08,-422.96 794.09,-403.23 794.09,-345.6 794.09,-345.6 794.09,-345.6 794.09,-227.8 794.09,-165.38 800.02,-141.63 764.09,-90.6 758.04,-82.01 750.3,-74.41 741.86,-67.77"/>
<polygon fill="#2b303a" stroke="#2b303a" points="743.73,-64.8 733.59,-61.7 739.58,-70.44 743.73,-64.8"/>
</g>
<!-- signTask -->
<g id="node11" class="node">
<title>signTask</title>
<path fill="#b9d6f2" stroke="transparent" d="M663.49,-375.2C663.49,-375.2 530.69,-375.2 530.69,-375.2 524.69,-375.2 518.69,-369.2 518.69,-363.2 518.69,-363.2 518.69,-326 518.69,-326 518.69,-320 524.69,-314 530.69,-314 530.69,-314 663.49,-314 663.49,-314 669.49,-314 675.49,-320 675.49,-326 675.49,-326 675.49,-363.2 675.49,-363.2 675.49,-369.2 669.49,-375.2 663.49,-375.2"/>
<text text-anchor="middle" x="597.09" y="-348.8" font-family="Arial" font-size="14.00">Require signed Task</text>
<text text-anchor="middle" x="597.09" y="-332" font-family="Arial" font-size="14.00">bundles</text>
</g>
<!-- attackTask&#45;&gt;signTask -->
<g id="edge12" class="edge">
<title>attackTask&#45;&gt;signTask</title>
<path fill="none" stroke="#2b303a" d="M573.47,-412.97C576.57,-404.12 580.02,-394.28 583.31,-384.91"/>
<polygon fill="#2b303a" stroke="#2b303a" points="586.64,-385.98 586.65,-375.38 580.04,-383.66 586.64,-385.98"/>
</g>
<!-- attackTask&#45;&gt;unauthorizedAccess -->
<g id="edge2" class="edge">
<title>attackTask&#45;&gt;unauthorizedAccess</title>
<path fill="none" stroke="#2b303a" d="M628.31,-413.39C653.88,-401.38 678.1,-389.06 682.09,-383.8 760.96,-279.61 737.95,-216.81 704.09,-90.6 702.28,-83.87 699.49,-77.11 696.28,-70.69"/>
<polygon fill="#2b303a" stroke="#2b303a" points="699.18,-68.69 691.32,-61.58 693.03,-72.04 699.18,-68.69"/>
</g>
<!-- attackImage&#45;&gt;exploitVulnerability -->
<!-- signImages -->
<g id="node12" class="node">
<title>signImages</title>
<path fill="#b9d6f2" stroke="transparent" d="M110.26,-259.4C110.26,-259.4 11.91,-259.4 11.91,-259.4 5.91,-259.4 -0.09,-253.4 -0.09,-247.4 -0.09,-247.4 -0.09,-210.2 -0.09,-210.2 -0.09,-204.2 5.91,-198.2 11.91,-198.2 11.91,-198.2 110.26,-198.2 110.26,-198.2 116.26,-198.2 122.26,-204.2 122.26,-210.2 122.26,-210.2 122.26,-247.4 122.26,-247.4 122.26,-253.4 116.26,-259.4 110.26,-259.4"/>
<text text-anchor="middle" x="61.09" y="-233" font-family="Arial" font-size="14.00">Require signed</text>
<text text-anchor="middle" x="61.09" y="-216.2" font-family="Arial" font-size="14.00">images</text>
</g>
<!-- attackImage&#45;&gt;signImages -->
<g id="edge13" class="edge">
<title>attackImage&#45;&gt;signImages</title>
<path fill="none" stroke="#2b303a" d="M122.5,-314C112.2,-299.88 99.77,-282.83 88.78,-267.78"/>
<polygon fill="#2b303a" stroke="#2b303a" points="91.58,-265.67 82.86,-259.65 85.92,-269.79 91.58,-265.67"/>
</g>
<!-- attackImage&#45;&gt;unauthorizedAccess -->
<g id="edge3" class="edge">
<title>attackImage&#45;&gt;unauthorizedAccess</title>
<path fill="none" stroke="#2b303a" d="M140.8,-313.8C138.38,-279.91 138.49,-223.77 159.09,-181.2 184.5,-128.68 201.58,-116.03 254.09,-90.6 310.79,-63.14 480.39,-45.96 584.7,-37.7"/>
<polygon fill="#2b303a" stroke="#2b303a" points="585.2,-41.17 594.9,-36.9 584.66,-34.19 585.2,-41.17"/>
</g>
<!-- exploitVulnerability&#45;&gt;misconfiguration -->
<!-- requireScans -->
<g id="node13" class="node">
<title>requireScans</title>
<path fill="#b9d6f2" stroke="transparent" d="M280.13,-276.5C280.13,-276.5 178.04,-276.5 178.04,-276.5 172.04,-276.5 166.04,-270.5 166.04,-264.5 166.04,-264.5 166.04,-193.1 166.04,-193.1 166.04,-187.1 172.04,-181.1 178.04,-181.1 178.04,-181.1 280.13,-181.1 280.13,-181.1 286.13,-181.1 292.13,-187.1 292.13,-193.1 292.13,-193.1 292.13,-264.5 292.13,-264.5 292.13,-270.5 286.13,-276.5 280.13,-276.5"/>
<text text-anchor="middle" x="229.09" y="-249.8" font-family="Arial" font-size="14.00">Require recent</text>
<text text-anchor="middle" x="229.09" y="-233" font-family="Arial" font-size="14.00">vulnerability</text>
<text text-anchor="middle" x="229.09" y="-216.2" font-family="Arial" font-size="14.00">scans as in&#45;toto</text>
<text text-anchor="middle" x="229.09" y="-199.4" font-family="Arial" font-size="14.00">attestations</text>
</g>
<!-- exploitVulnerability&#45;&gt;requireScans -->
<g id="edge14" class="edge">
<title>exploitVulnerability&#45;&gt;requireScans</title>
<path fill="none" stroke="#2b303a" d="M268.28,-305.39C264.96,-299 261.46,-292.25 257.98,-285.53"/>
<polygon fill="#2b303a" stroke="#2b303a" points="260.96,-283.67 253.25,-276.4 254.74,-286.89 260.96,-283.67"/>
</g>
<!-- exploitVulnerability&#45;&gt;unauthorizedAccess -->
<g id="edge4" class="edge">
<title>exploitVulnerability&#45;&gt;unauthorizedAccess</title>
<path fill="none" stroke="#2b303a" d="M294.38,-305.22C295.92,-295.8 297.57,-285.73 299.09,-276.4 305.8,-235.12 299.67,-120.33 329.09,-90.6 363.97,-55.34 495.74,-41.1 584.89,-35.44"/>
<polygon fill="#2b303a" stroke="#2b303a" points="585.23,-38.92 595,-34.82 584.8,-31.94 585.23,-38.92"/>
</g>
<!-- requireNamespace -->
<g id="node14" class="node">
<title>requireNamespace</title>
<path fill="#b9d6f2" stroke="transparent" d="M484.38,-251.1C484.38,-251.1 347.79,-251.1 347.79,-251.1 341.79,-251.1 335.79,-245.1 335.79,-239.1 335.79,-239.1 335.79,-218.5 335.79,-218.5 335.79,-212.5 341.79,-206.5 347.79,-206.5 347.79,-206.5 484.38,-206.5 484.38,-206.5 490.38,-206.5 496.38,-212.5 496.38,-218.5 496.38,-218.5 496.38,-239.1 496.38,-239.1 496.38,-245.1 490.38,-251.1 484.38,-251.1"/>
<text text-anchor="middle" x="416.09" y="-224.6" font-family="Arial" font-size="14.00">Require namespaces</text>
</g>
<!-- misconfiguration&#45;&gt;requireNamespace -->
<g id="edge15" class="edge">
<title>misconfiguration&#45;&gt;requireNamespace</title>
<path fill="none" stroke="#2b303a" d="M429.37,-305.39C426.84,-290.98 423.99,-274.78 421.58,-261.08"/>
<polygon fill="#2b303a" stroke="#2b303a" points="425.02,-260.4 419.84,-251.16 418.12,-261.61 425.02,-260.4"/>
</g>
<!-- requireSecurityContext -->
<g id="node16" class="node">
<title>requireSecurityContext</title>
<path fill="#b9d6f2" stroke="transparent" d="M636.1,-259.4C636.1,-259.4 522.08,-259.4 522.08,-259.4 516.08,-259.4 510.08,-253.4 510.08,-247.4 510.08,-247.4 510.08,-210.2 510.08,-210.2 510.08,-204.2 516.08,-198.2 522.08,-198.2 522.08,-198.2 636.1,-198.2 636.1,-198.2 642.1,-198.2 648.1,-204.2 648.1,-210.2 648.1,-210.2 648.1,-247.4 648.1,-247.4 648.1,-253.4 642.1,-259.4 636.1,-259.4"/>
<text text-anchor="middle" x="579.09" y="-233" font-family="Arial" font-size="14.00">Require container</text>
<text text-anchor="middle" x="579.09" y="-216.2" font-family="Arial" font-size="14.00">securityContext</text>
</g>
<!-- misconfiguration&#45;&gt;requireSecurityContext -->
<g id="edge17" class="edge">
<title>misconfiguration&#45;&gt;requireSecurityContext</title>
<path fill="none" stroke="#2b303a" d="M484.1,-305.39C500.13,-292.63 517.93,-278.47 533.75,-265.88"/>
<polygon fill="#2b303a" stroke="#2b303a" points="536.18,-268.42 541.82,-259.45 531.82,-262.94 536.18,-268.42"/>
</g>
<!-- misconfiguration&#45;&gt;unauthorizedAccess -->
<g id="edge5" class="edge">
<title>misconfiguration&#45;&gt;unauthorizedAccess</title>
<path fill="none" stroke="#2b303a" d="M504.92,-308.03C507.32,-307.1 509.71,-306.22 512.09,-305.4 573.37,-284.21 612.52,-325.33 655.09,-276.4 680.82,-246.82 677.27,-133.01 673.27,-71.62"/>
<polygon fill="#2b303a" stroke="#2b303a" points="676.75,-71.25 672.57,-61.51 669.77,-71.73 676.75,-71.25"/>
</g>
<!-- signPipeline&#45;&gt;unauthorizedAccess -->
<!-- signTask&#45;&gt;unauthorizedAccess -->
<!-- signImages&#45;&gt;unauthorizedAccess -->
<!-- requireScans&#45;&gt;unauthorizedAccess -->
<!-- generateNamespaceDefaults -->
<g id="node15" class="node">
<title>generateNamespaceDefaults</title>
<path fill="#b9d6f2" stroke="transparent" d="M488.55,-152C488.55,-152 347.62,-152 347.62,-152 341.62,-152 335.62,-146 335.62,-140 335.62,-140 335.62,-102.8 335.62,-102.8 335.62,-96.8 341.62,-90.8 347.62,-90.8 347.62,-90.8 488.55,-90.8 488.55,-90.8 494.55,-90.8 500.55,-96.8 500.55,-102.8 500.55,-102.8 500.55,-140 500.55,-140 500.55,-146 494.55,-152 488.55,-152"/>
<text text-anchor="middle" x="418.09" y="-125.6" font-family="Arial" font-size="14.00">Generate Namespace</text>
<text text-anchor="middle" x="418.09" y="-108.8" font-family="Arial" font-size="14.00">defaults</text>
</g>
<!-- requireNamespace&#45;&gt;generateNamespaceDefaults -->
<g id="edge16" class="edge">
<title>requireNamespace&#45;&gt;generateNamespaceDefaults</title>
<path fill="none" stroke="#2b303a" d="M416.49,-206.47C416.73,-193.76 417.05,-177.23 417.33,-162.19"/>
<polygon fill="#2b303a" stroke="#2b303a" points="420.83,-162.15 417.52,-152.08 413.83,-162.02 420.83,-162.15"/>
</g>
<!-- requireNamespace&#45;&gt;requireSecurityContext -->
<!-- generateNamespaceDefaults&#45;&gt;unauthorizedAccess -->
<!-- requireSecurityContext&#45;&gt;unauthorizedAccess -->
</g>
</svg>
